<svg width="257" height="45" viewBox="0 0 257 45" fill="none" xmlns="http://www.w3.org/2000/svg">
<path d="M118.32 31V18.64H134.328C135.736 18.64 136.768 18.992 137.424 19.696C138.08 20.384 138.408 21.296 138.408 22.432V31H134.928V22.864C134.928 21.888 134.432 21.4 133.44 21.4H130.104V31H126.624V21.4H121.8V31H118.32ZM147.273 31.12C145.129 31.12 143.457 30.592 142.257 29.536C141.057 28.464 140.457 26.896 140.457 24.832C140.457 22.752 141.057 21.184 142.257 20.128C143.457 19.056 145.129 18.52 147.273 18.52H153.273C154.681 18.52 155.753 18.856 156.489 19.528C157.241 20.184 157.617 21.128 157.617 22.36C157.617 24.872 156.169 26.128 153.273 26.128H144.201C144.537 27.616 145.561 28.36 147.273 28.36H156.993V31.12H147.273ZM147.273 21.28C145.625 21.28 144.609 21.976 144.225 23.368H153.105C153.425 23.368 153.673 23.272 153.849 23.08C154.041 22.888 154.137 22.624 154.137 22.288C154.137 21.616 153.793 21.28 153.105 21.28H147.273ZM159.781 31V18.64H170.557C171.965 18.64 172.989 18.992 173.629 19.696C174.285 20.384 174.613 21.296 174.613 22.432V31H171.133V22.84C171.133 21.88 170.653 21.4 169.693 21.4H163.261V31H159.781ZM183.557 31C182.165 31 181.141 30.656 180.485 29.968C179.829 29.264 179.501 28.344 179.501 27.208V21.4H175.925V18.64H179.501V14.848H182.981V18.64H188.117V21.4H182.981V26.776C182.981 27.752 183.461 28.24 184.421 28.24H188.789V31H183.557ZM196.914 31.12C194.77 31.12 193.098 30.592 191.898 29.536C190.698 28.464 190.098 26.896 190.098 24.832C190.098 22.752 190.698 21.184 191.898 20.128C193.098 19.056 194.77 18.52 196.914 18.52H201.354C203.498 18.52 205.17 19.056 206.37 20.128C207.57 21.184 208.17 22.752 208.17 24.832C208.17 26.896 207.57 28.464 206.37 29.536C205.17 30.592 203.498 31.12 201.354 31.12H196.914ZM196.914 28.36H201.354C202.394 28.36 203.186 28.072 203.73 27.496C204.29 26.92 204.57 26.032 204.57 24.832C204.57 23.616 204.29 22.72 203.73 22.144C203.186 21.568 202.394 21.28 201.354 21.28H196.914C195.874 21.28 195.074 21.568 194.514 22.144C193.97 22.72 193.698 23.616 193.698 24.832C193.698 26.032 193.97 26.92 194.514 27.496C195.074 28.072 195.874 28.36 196.914 28.36ZM210.336 31V18.64H219.792C221.184 18.64 222.208 18.992 222.864 19.696C223.52 20.384 223.848 21.296 223.848 22.432V25H220.32V22.864C220.32 21.904 219.84 21.424 218.88 21.424H213.864V31H210.336Z" fill="black"/>
<rect width="107.959" height="44.3934" fill="#0D74FF"/>
<path d="M25.68 30.3795V13.2195H28.512L36.192 13.1955C39.296 13.1955 41.704 13.9235 43.416 15.3795C45.128 16.8355 45.984 18.9715 45.984 21.7875C45.984 24.6035 45.128 26.7395 43.416 28.1955C41.704 29.6515 39.296 30.3795 36.192 30.3795H25.68ZM35.928 16.3155H29.52V27.2595H35.928C37.944 27.2595 39.472 26.8195 40.512 25.9395C41.552 25.0595 42.072 23.6755 42.072 21.7875C42.072 19.8835 41.552 18.4995 40.512 17.6355C39.472 16.7555 37.944 16.3155 35.928 16.3155ZM48.3909 30.3795V13.2195H67.2069V16.3395H52.2309V20.1315H65.8149V23.2515H52.2309V27.2595H67.2069V30.3795H48.3909ZM75.8843 30.3795L68.1562 13.2195H72.3323L78.6923 27.3795H79.0043L85.3643 13.2195H89.5403L81.8123 30.3795H75.8843Z" fill="white"/>
</svg>
