<?xml version="1.0" encoding="utf-8"?>
<!-- Generator: Adobe Illustrator 26.0.2, SVG Export Plug-In . SVG Version: 6.00 Build 0)  -->
<svg version="1.1" id="Layer_1" xmlns="http://www.w3.org/2000/svg" xmlns:xlink="http://www.w3.org/1999/xlink" x="0px" y="0px"
	 viewBox="0 0 320.1 99.9" style="enable-background:new 0 0 320.1 99.9;" xml:space="preserve">
<style type="text/css">
	.st0{fill:#EA4335;}
	.st1{fill:#FBBC05;}
	.st2{fill:#4285F4;}
	.st3{fill:#34A853;}
</style>
<g>
	<path class="st0" d="M138.2,52.6c0,14.4-11.2,25-25,25s-25-10.6-25-25c0-14.5,11.2-25,25-25S138.2,38.1,138.2,52.6z M127.2,52.6
		c0-9-6.5-15.1-14.1-15.1s-14.1,6.1-14.1,15.1c0,8.9,6.5,15.1,14.1,15.1S127.2,61.5,127.2,52.6z"/>
	<path class="st1" d="M192.2,52.6c0,14.4-11.2,25-25,25c-13.8,0-25-10.6-25-25c0-14.5,11.2-25,25-25C181,27.6,192.2,38.1,192.2,52.6
		z M181.2,52.6c0-9-6.5-15.1-14.1-15.1c-7.6,0-14.1,6.1-14.1,15.1c0,8.9,6.5,15.1,14.1,15.1C174.7,67.7,181.2,61.5,181.2,52.6z"/>
	<path class="st2" d="M244,29.1v44.8c0,18.4-10.9,26-23.7,26c-12.1,0-19.4-8.1-22.1-14.7l9.5-4c1.7,4.1,5.9,8.9,12.6,8.9
		c8.2,0,13.3-5.1,13.3-14.6v-3.6h-0.4c-2.5,3-7.2,5.7-13.1,5.7c-12.5,0-23.9-10.9-23.9-24.9c0-14.1,11.4-25.1,23.9-25.1
		c6,0,10.7,2.6,13.1,5.6h0.4v-4.1L244,29.1L244,29.1z M234.3,52.7c0-8.8-5.9-15.2-13.3-15.2c-7.6,0-13.9,6.4-13.9,15.2
		c0,8.7,6.3,15,13.9,15C228.5,67.7,234.3,61.4,234.3,52.7z"/>
	<path class="st3" d="M261.1,2.8V76h-10.7V2.8L261.1,2.8z"/>
	<path class="st0" d="M302.8,60.8l8.5,5.7c-2.7,4.1-9.4,11.1-20.8,11.1c-14.2,0-24.8-11-24.8-25c0-14.8,10.7-25,23.5-25
		c13,0,19.3,10.3,21.4,15.9l1.1,2.8l-33.4,13.8c2.6,5,6.5,7.6,12.1,7.6C296.1,67.7,300,65,302.8,60.8L302.8,60.8z M276.6,51.8
		l22.3-9.3c-1.2-3.1-4.9-5.3-9.3-5.3C284.1,37.3,276.3,42.2,276.6,51.8z"/>
	<path class="st2" d="M47.6,46.1V35.5h35.7c0.3,1.8,0.5,4,0.5,6.4c0,7.9-2.2,17.8-9.2,24.8c-6.8,7.1-15.5,10.9-27,10.9
		c-21.4,0-39.3-17.4-39.3-38.8S26.3,0,47.6,0c11.8,0,20.2,4.6,26.6,10.7l-7.5,7.5c-4.5-4.3-10.7-7.6-19.1-7.6
		c-15.6,0-27.8,12.6-27.8,28.2S32,66.9,47.6,66.9c10.1,0,15.9-4.1,19.6-7.8c3-3,5-7.3,5.7-13.1L47.6,46.1z"/>
</g>
</svg>
