<?xml version="1.0" encoding="utf-8"?>
<!-- Generator: Adobe Illustrator 26.0.2, SVG Export Plug-In . SVG Version: 6.00 Build 0)  -->
<svg version="1.1" id="Layer_1" xmlns="http://www.w3.org/2000/svg" xmlns:xlink="http://www.w3.org/1999/xlink" x="0px" y="0px"
	 viewBox="0 0 320.1 99.9" style="enable-background:new 0 0 320.1 99.9;" xml:space="preserve">
<style type="text/css">
	.st0{fill:#706D6E;}
	.st1{fill:#F1511B;}
	.st2{fill:#80CC28;}
	.st3{fill:#00ADEF;}
	.st4{fill:#FBBC09;}
</style>
<g>
	<path class="st0" d="M320.1,47.8v-5.6h-7v-8.8l-0.2,0.1l-6.6,2l-0.1,0v6.6h-10.4v-3.7c0-1.7,0.4-3,1.1-3.9c0.8-0.9,1.8-1.3,3.2-1.3
		c1,0,2,0.2,3,0.7l0.3,0.1v-5.9l-0.1,0c-1-0.3-2.3-0.5-3.9-0.5c-2,0-3.9,0.4-5.5,1.3c-1.6,0.9-2.9,2.1-3.8,3.7
		c-0.9,1.6-1.3,3.4-1.3,5.5v4.1H284v5.6h4.9v23.7h7V47.8h10.4v15.1c0,6.2,2.9,9.4,8.7,9.4c0.9,0,1.9-0.1,3-0.3
		c1-0.2,1.7-0.4,2.2-0.7l0.1-0.1v-5.7l-0.3,0.2c-0.4,0.3-0.9,0.5-1.4,0.6c-0.6,0.2-1,0.2-1.4,0.2c-1.4,0-2.4-0.4-3-1.1
		c-0.6-0.7-0.9-2-0.9-3.8V47.8H320.1L320.1,47.8z M268.4,66.5c-2.5,0-4.5-0.8-5.9-2.5c-1.4-1.7-2.1-4-2.1-7.1c0-3.1,0.7-5.5,2.1-7.2
		c1.4-1.7,3.4-2.5,5.9-2.5c2.4,0,4.4,0.8,5.7,2.4c1.4,1.6,2.1,4,2.1,7.2c0,3.2-0.7,5.6-2,7.3C272.9,65.6,270.9,66.5,268.4,66.5
		 M268.7,41.4c-4.8,0-8.7,1.4-11.4,4.2c-2.7,2.8-4.1,6.7-4.1,11.5c0,4.6,1.4,8.3,4,11c2.7,2.7,6.3,4.1,10.8,4.1
		c4.7,0,8.5-1.4,11.2-4.3c2.7-2.8,4.1-6.7,4.1-11.4c0-4.7-1.3-8.4-3.9-11.1C276.8,42.8,273.2,41.4,268.7,41.4 M241.8,41.4
		c-3.3,0-6,0.8-8.1,2.5c-2.1,1.7-3.2,3.9-3.2,6.5c0,1.4,0.2,2.6,0.7,3.6c0.5,1,1.2,2,2.1,2.7c0.9,0.8,2.4,1.6,4.2,2.4
		c1.6,0.7,2.8,1.2,3.5,1.6c0.7,0.4,1.3,0.9,1.6,1.3c0.3,0.4,0.4,1,0.4,1.7c0,2-1.5,2.9-4.5,2.9c-1.1,0-2.4-0.2-3.8-0.7
		c-1.4-0.5-2.7-1.1-3.9-2l-0.3-0.2v6.7l0.1,0c1,0.5,2.2,0.8,3.7,1.1c1.5,0.3,2.8,0.5,4,0.5c3.6,0,6.4-0.8,8.5-2.5
		c2.1-1.7,3.2-3.9,3.2-6.7c0-2-0.6-3.7-1.7-5c-1.1-1.4-3.1-2.6-5.8-3.7c-2.2-0.9-3.6-1.6-4.1-2.2c-0.6-0.5-0.8-1.3-0.8-2.3
		c0-0.9,0.3-1.5,1.1-2.1c0.7-0.6,1.7-0.8,3-0.8c1.2,0,2.4,0.2,3.5,0.5c1.2,0.4,2.2,0.8,3.1,1.4l0.3,0.2v-6.4l-0.1,0
		c-0.8-0.3-1.9-0.6-3.1-0.9C244,41.5,242.9,41.4,241.8,41.4 M212.4,66.5c-2.5,0-4.5-0.8-5.9-2.5c-1.4-1.7-2.1-4-2.1-7.1
		c0-3.1,0.7-5.5,2.1-7.2c1.4-1.7,3.4-2.5,5.9-2.5c2.4,0,4.4,0.8,5.7,2.4c1.4,1.6,2.1,4,2.1,7.2c0,3.2-0.7,5.6-2,7.3
		C216.9,65.6,214.9,66.5,212.4,66.5 M212.7,41.4c-4.8,0-8.7,1.4-11.4,4.2c-2.7,2.8-4.1,6.7-4.1,11.5c0,4.6,1.4,8.3,4,11
		c2.7,2.7,6.3,4.1,10.8,4.1c4.7,0,8.5-1.4,11.2-4.3c2.7-2.8,4.1-6.7,4.1-11.4c0-4.7-1.3-8.4-3.9-11.1
		C220.9,42.8,217.3,41.4,212.7,41.4 M186.5,47.2v-5.1h-6.9v29.3h6.9v-15c0-2.6,0.6-4.6,1.7-6.2c1.1-1.6,2.6-2.4,4.5-2.4
		c0.6,0,1.3,0.1,2.1,0.3c0.7,0.2,1.3,0.4,1.6,0.7l0.3,0.2v-7l-0.1,0c-0.6-0.3-1.6-0.4-2.7-0.4c-1.7,0-3.3,0.6-4.6,1.7
		C188.1,44.2,187.3,45.6,186.5,47.2L186.5,47.2z M167.3,41.4c-3.2,0-6,0.7-8.4,2c-2.4,1.3-4.3,3.3-5.5,5.7c-1.3,2.4-1.9,5.3-1.9,8.4
		c0,2.8,0.6,5.3,1.8,7.6c1.2,2.2,3,4,5.2,5.2c2.2,1.2,4.7,1.8,7.5,1.8c3.3,0,6.1-0.7,8.3-1.9l0.1-0.1v-6.3l-0.3,0.2
		c-1,0.7-2.2,1.3-3.4,1.8c-1.2,0.4-2.3,0.6-3.3,0.6c-2.7,0-4.9-0.8-6.5-2.5c-1.6-1.7-2.4-4-2.4-7c0-3,0.8-5.4,2.5-7.2
		c1.6-1.8,3.8-2.7,6.5-2.7c2.3,0,4.5,0.8,6.6,2.3l0.3,0.2V43l-0.1-0.1c-0.8-0.4-1.9-0.8-3.2-1.1C169.8,41.6,168.5,41.4,167.3,41.4
		 M146.7,42.1h-6.9v29.3h6.9C146.7,71.5,146.7,42.1,146.7,42.1z M143.3,29.6c-1.1,0-2.1,0.4-2.9,1.2c-0.8,0.8-1.2,1.7-1.2,2.9
		c0,1.1,0.4,2.1,1.2,2.8c0.8,0.7,1.8,1.1,3,1.1c1.2,0,2.2-0.4,3-1.1c0.8-0.7,1.2-1.7,1.2-2.8c0-1.1-0.4-2.1-1.2-2.8
		C145.5,30,144.5,29.6,143.3,29.6 M126.1,40v31.5h7V30.5h-9.7L111,60.9L99,30.5H88.8v40.9h6.6V40h0.2l12.7,31.5h5L125.9,40L126.1,40
		L126.1,40z"/>
	<path class="st1" d="M32.5,49.3H0V16.8h32.5V49.3z"/>
	<path class="st2" d="M68.3,49.3H35.9V16.8h32.5V49.3L68.3,49.3z"/>
	<path class="st3" d="M32.5,85.2H0V52.7h32.5V85.2z"/>
	<path class="st4" d="M68.3,85.2H35.9V52.7h32.5V85.2L68.3,85.2z"/>
</g>
</svg>
