<?xml version="1.0" encoding="utf-8"?>
<!-- Generator: Adobe Illustrator 26.0.2, SVG Export Plug-In . SVG Version: 6.00 Build 0)  -->
<svg version="1.1" id="Layer_1" xmlns="http://www.w3.org/2000/svg" xmlns:xlink="http://www.w3.org/1999/xlink" x="0px" y="0px"
	 viewBox="0 0 320.1 99.9" style="enable-background:new 0 0 320.1 99.9;" xml:space="preserve">
<style type="text/css">
	.st0{fill:#D81F26;}
</style>
<path class="st0" d="M44,87.6c-4.8,0.8-9.7,1.1-14.8,1.8L13.8,44.1v47.2C8.9,91.9,4.6,92.5,0,93.2V6.7h12.8l17.6,49.1V6.7H44
	L44,87.6z M70.6,38.4c5.2,0,13.3-0.3,18.1-0.3v13.5c-6,0-13,0-18.1,0.3V72c7.9-0.5,15.9-1.2,23.9-1.4v13l-37.4,3V6.7h37.4v13.5H70.6
	V38.4z M144.8,20.2h-14v62.2c-4.6,0-9.1,0-13.5,0.2V20.2h-14V6.7h41.6L144.8,20.2z M166.8,37.4h18.5V51h-18.5v30.7h-13.3V6.7h37.8
	v13.5h-24.5V37.4z M213.2,69.8c7.7,0.2,15.5,0.8,23,1.2v13.3c-12.1-0.8-24.2-1.5-36.5-1.8V6.7h13.5V69.8z M247.6,85.3
	c4.3,0.3,8.9,0.5,13.3,1V6.7h-13.3V85.3z M320.1,6.7l-17.2,41.1l17.2,45.4c-5.1-0.7-10.1-1.6-15.2-2.5l-9.7-25l-9.9,23
	c-4.9-0.8-9.6-1.1-14.5-1.8l17.4-39.6L272.5,6.7H287l8.9,22.7l9.5-22.7H320.1z"/>
</svg>
