<?xml version="1.0" encoding="utf-8"?>
<!-- Generator: Adobe Illustrator 26.0.2, SVG Export Plug-In . SVG Version: 6.00 Build 0)  -->
<svg version="1.1" id="Layer_1" xmlns="http://www.w3.org/2000/svg" xmlns:xlink="http://www.w3.org/1999/xlink" x="0px" y="0px"
	 viewBox="0 0 320.1 99.9" style="enable-background:new 0 0 320.1 99.9;" xml:space="preserve">
<style type="text/css">
	.st0{fill:#010202;}
</style>
<path class="st0" d="M31.8,71.5c1.2,3.2,2.9,6,5.1,8.3c2.2,2.3,4.7,4.1,7.7,5.3c3,1.2,6.2,1.8,9.7,1.8c3.4,0,6.6-0.6,9.5-1.9
	c3-1.3,5.6-3.1,7.8-5.4c2.2-2.3,3.9-5.1,5.2-8.3c1.2-3.2,1.8-6.8,1.8-10.7v-61h14.8v98.9H78.7v-9.2c-3.3,3.5-7.2,6.2-11.7,8.1
	c-4.5,1.9-9.3,2.8-14.5,2.8c-5.3,0-10.2-0.9-14.8-2.8c-4.6-1.8-8.5-4.4-11.9-7.8s-6-7.5-7.9-12.2c-1.9-4.8-2.9-10.1-2.9-15.9V-0.3
	H30v61C30,64.6,30.6,68.2,31.8,71.5L31.8,71.5z M119-0.3v36c3.3-3.3,7.1-5.9,11.4-7.8s9-2.9,14.1-2.9c5.3,0,10.2,1,14.8,3
	c4.6,2,8.6,4.7,12,8.1c3.4,3.4,6.1,7.4,8.1,12c2,4.6,3,9.5,3,14.7c0,5.2-1,10.1-3,14.6c-2,4.6-4.7,8.5-8.1,11.9
	c-3.4,3.4-7.4,6.1-12,8.1c-4.6,2-9.6,3-14.8,3c-5.1,0-9.8-1-14.2-2.9c-4.4-1.9-8.2-4.5-11.5-7.8v9h-14.1V-0.3H119z M120.6,72.4
	c1.3,3,3,5.7,5.3,7.9c2.3,2.3,4.9,4.1,7.9,5.4c3,1.3,6.3,2,9.7,2c3.4,0,6.6-0.7,9.6-2c3-1.3,5.6-3.1,7.8-5.4c2.2-2.3,4-4.9,5.3-7.9
	c1.3-3,2-6.3,2-9.7c0-3.5-0.7-6.8-2-9.8c-1.3-3.1-3.1-5.7-5.3-8c-2.2-2.3-4.8-4-7.8-5.3c-3-1.3-6.2-1.9-9.6-1.9
	c-3.4,0-6.6,0.6-9.6,1.9s-5.7,3-7.9,5.3c-2.3,2.3-4,4.9-5.4,8c-1.3,3.1-2,6.3-2,9.8C118.7,66.2,119.4,69.4,120.6,72.4L120.6,72.4z
	 M190.5,48.1c1.9-4.5,4.5-8.5,7.8-11.9s7.2-6.1,11.7-8.1s9.4-3,14.7-3c5.2,0,10,0.9,14.4,2.8c4.4,1.9,8.2,4.5,11.4,7.8
	c3.2,3.3,5.7,7.3,7.5,11.9c1.8,4.6,2.7,9.5,2.7,14.9v4.7h-58.6c0.5,2.9,1.4,5.6,2.8,8.1c1.4,2.5,3.2,4.7,5.3,6.5
	c2.1,1.8,4.5,3.3,7.2,4.3c2.7,1,5.5,1.6,8.5,1.6c8.6,0,15.5-3.5,20.8-10.6l10.3,7.6c-3.6,4.8-8,8.6-13.3,11.3
	c-5.3,2.7-11.2,4.1-17.8,4.1c-5.4,0-10.4-0.9-15-2.8c-4.7-1.9-8.7-4.5-12.1-7.9c-3.4-3.4-6.1-7.4-8.1-11.9c-2-4.6-3-9.5-3-14.9
	C187.7,57.4,188.6,52.6,190.5,48.1L190.5,48.1z M210.3,42.5c-4,3.3-6.7,7.8-8,13.4h43.9c-1.2-5.6-3.8-10-7.8-13.4
	c-4-3.3-8.7-5-14.1-5C219,37.5,214.3,39.2,210.3,42.5L210.3,42.5z M287.4,44.2c-3,3.3-4.5,7.8-4.5,13.4v41h-14.3V26.5h14.1v8.9
	c1.8-2.9,4.1-5.2,7-6.9c2.9-1.7,6.3-2.5,10.2-2.5h4.9v13.3H299C294.3,39.2,290.4,40.9,287.4,44.2L287.4,44.2z"/>
</svg>
